<?xml version="1.0" standalone="no"?>
<!DOCTYPE svg PUBLIC "-//W3C//DTD SVG 20010904//EN"
 "http://www.w3.org/TR/2001/REC-SVG-20010904/DTD/svg10.dtd">
<svg version="1.0" xmlns="http://www.w3.org/2000/svg"
 width="100.000000pt" height="100.000000pt" viewBox="0 0 100.000000 100.000000"
 preserveAspectRatio="xMidYMid meet">
<metadata>
Created by potrace 1.11, written by Peter Selinger 2001-2013
</metadata>
<g transform="translate(0.000000,100.000000) scale(0.100000,-0.100000)"
fill="#000000" stroke="none">
<path d="M472 950 c-79 -48 -161 -88 -169 -82 -4 4 -5 3 0 -2 6 -8 -99 -73
-128 -79 -10 -2 -11 -3 -57 -37 l-27 -20 2 -233 1 -232 25 -16 c14 -8 58 -33
96 -54 39 -21 87 -49 107 -62 21 -12 42 -23 47 -23 5 0 11 -3 13 -7 5 -12 103
-63 119 -63 8 0 39 16 69 34 30 19 58 32 62 30 4 -3 8 -1 8 4 0 5 26 23 58 41
31 17 80 45 107 61 28 17 60 36 73 42 19 10 22 19 23 77 0 36 1 143 3 238 l2
172 -105 54 c-100 52 -120 56 -146 35 -16 -14 -143 -88 -150 -88 -4 0 -18 -9
-32 -20 -14 -11 -29 -17 -34 -14 -5 3 -9 1 -9 -5 0 -5 -19 -19 -42 -31 -93
-46 -91 -42 -89 -193 1 -83 4 -99 19 -104 9 -4 51 -28 93 -55 42 -26 81 -48
87 -48 6 0 36 16 66 35 30 19 60 35 66 35 5 0 10 3 10 8 0 4 13 15 29 24 24
13 29 22 27 45 -2 15 0 36 5 45 5 9 5 19 1 22 -5 3 -8 30 -7 61 2 66 6 66
-107 -2 -75 -45 -84 -57 -79 -100 3 -18 -9 -16 -46 7 -27 16 -33 26 -33 54 0
18 7 39 15 46 8 7 15 9 15 6 0 -4 6 -1 14 7 8 7 62 42 120 77 103 61 107 62
131 46 14 -9 25 -14 25 -10 0 4 6 1 13 -5 11 -8 14 -50 14 -176 0 -90 -3 -162
-7 -160 -5 3 -10 1 -12 -4 -1 -4 -43 -30 -93 -56 -49 -27 -103 -57 -120 -67
-16 -10 -37 -18 -45 -18 -8 0 -73 33 -144 73 l-130 73 1 150 c1 82 2 156 2
165 1 10 30 34 69 56 37 22 124 73 194 113 71 41 125 77 120 81 -4 4 -30 21
-58 37 -51 30 -52 30 -82 12z"/>
</g>
</svg>
