<svg width="1600" height="1075" viewBox="0 0 1600 1075" fill="none" xmlns="http://www.w3.org/2000/svg">
<path d="M0 0H1600V1075H0V708.425V0Z" fill="white"/>
<path d="M1599.98 3H0C0 3 0 526.104 0 526.125C0 524.453 107.135 558.286 115.902 562.081C147.795 575.845 179.027 591.111 208.232 610C264.828 646.642 309.799 695.805 338.897 757.103C373.52 830.065 404.027 895.072 488.676 915.891C582.734 939.025 687.372 923.502 782.966 919.879C883.999 916.041 986.739 910.766 1087.56 920.5C1221.12 933.407 1329.58 1007.81 1441.69 1075H1600V3H1599.98Z" fill="url(#paint0_linear)"/>
<path d="M1599.98 3H0.0214844C0.0214844 3 0.0214844 451.73 0.0214844 451.835C0.0214844 441.485 125.885 442.771 138.407 444.289C178.577 449.2 215.589 463.345 250.02 484.088C306.595 518.174 355.553 564.803 395.062 617.672C430.197 664.68 452.191 724.864 504.861 756.294C554.674 786.038 620.634 793.943 677.742 789.832C740.631 785.3 789.889 755.704 845.098 729.185C900.328 702.666 958.396 694.867 1019.26 701.886C1114.15 712.848 1164.94 766.834 1220.19 837.494C1262.35 891.396 1315.78 906.657 1374.77 935.664C1406.3 951.178 1433.18 973.945 1459.48 996.753C1472.17 1007.76 1514.93 1057 1532.5 1057H1599.96V3H1599.98Z" fill="url(#paint1_linear)"/>
<path d="M401.44 544.25C474.547 596.149 550.215 634.746 637.53 660.064C736.279 688.711 834.773 699.884 937.319 689.997C1037.11 680.364 1134.58 665.144 1231.26 700.769C1296.86 724.927 1356.23 762.112 1416.2 797.189C1445.62 814.411 1475.27 831.339 1506.05 846.073C1517.14 851.386 1599.96 880.539 1599.96 884.46V3H0V401.538C146.151 387.309 274.659 451.372 388.726 535.08C392.971 538.179 397.195 541.236 401.44 544.25Z" fill="url(#paint2_linear)"/>
<path d="M100.285 268.608C167.505 353.286 252.132 433.348 359.116 464.23C463.135 494.269 567.687 470.259 673.39 469.964C782.017 469.648 850.218 518.153 934.525 578.02C1009.66 631.353 1104.21 668.664 1197.9 650.051C1246.88 640.312 1289.63 614.215 1335.05 595.053C1378.03 576.945 1423.49 564.171 1469.57 556.624C1482.86 554.453 1599.98 543.133 1599.98 549.035V3H0.0214844V184.393C36.9485 208.319 72.9369 232.582 100.285 268.608Z" fill="url(#paint3_linear)"/>
<path d="M699.736 281.593C790.827 360.348 837.845 480.799 931.709 534.806C976.956 560.84 1028.03 567.712 1077.99 551.312C1128.67 534.68 1170.04 497.347 1221.6 483.181C1281.48 466.739 1334.32 495.766 1391.56 508.14C1473.56 525.847 1563.61 468.784 1599.98 397.554V3H0.0214844V232.92C6.39998 241.415 8.53325 327.168 153.617 343.779C251.748 355.015 329.399 328.349 378.678 303.369C587.377 197.632 675.118 260.302 699.736 281.593Z" fill="url(#paint4_linear)"/>
<path d="M213.333 193.267C374.763 257.682 531.2 242.115 691.2 223C772.267 212.381 853.333 203.886 925.867 239.991C1094.4 322.819 1260.8 431.134 1452.8 407.772C1503.36 402.484 1552.26 385.621 1600 364.913V0H0V72.1459C9.64267 77.5616 19.52 82.6588 29.8667 87.0763C91.7333 112.562 151.851 168.737 213.333 193.267Z" fill="url(#paint5_linear)"/>
<defs>
<linearGradient id="paint0_linear" x1="406.4" y1="934.574" x2="1471.96" y2="-125.653" gradientUnits="userSpaceOnUse">
<stop stop-color="#F0F0F0"/>
<stop offset="0.2492" stop-color="#D5D5D5"/>
<stop offset="0.7513" stop-color="#A4A4A4"/>
<stop offset="1" stop-color="#919191"/>
</linearGradient>
<linearGradient id="paint1_linear" x1="439.553" y1="886.169" x2="1454.4" y2="-140.847" gradientUnits="userSpaceOnUse">
<stop stop-color="#FAFAFA"/>
<stop offset="0.1957" stop-color="#F1F1F4"/>
<stop offset="0.54" stop-color="#E7E7ED"/>
<stop offset="0.9946" stop-color="#E4E4EB"/>
</linearGradient>
<linearGradient id="paint2_linear" x1="547.22" y1="693.511" x2="1536.92" y2="-308.053" gradientUnits="userSpaceOnUse">
<stop stop-color="#FAFAFA"/>
<stop offset="1" stop-color="#D8D7DB"/>
</linearGradient>
<linearGradient id="paint3_linear" x1="446.362" y1="625.462" x2="1327.5" y2="-266.243" gradientUnits="userSpaceOnUse">
<stop stop-color="#FAFAFA"/>
<stop offset="1" stop-color="#D8D7DB"/>
</linearGradient>
<linearGradient id="paint4_linear" x1="302.076" y1="514.431" x2="1423.5" y2="-167.521" gradientUnits="userSpaceOnUse">
<stop offset="0.1161" stop-color="white"/>
<stop offset="0.2777" stop-color="#F7F7F7"/>
<stop offset="0.6268" stop-color="#ECECEC"/>
<stop offset="1" stop-color="#E8E8E8"/>
</linearGradient>
<linearGradient id="paint5_linear" x1="455.394" y1="525.518" x2="1287.89" y2="-310.71" gradientUnits="userSpaceOnUse">
<stop stop-color="white"/>
<stop offset="0.3517" stop-color="#F9F9F9"/>
<stop offset="1" stop-color="#F2F2F2"/>
</linearGradient>
</defs>
</svg>
